# xmcd
#
# Track frame offsets:
#	150
#	12784
#	28205
#	44610
#	59865
#	77152
#	91651
#	110036
#	124981
#	137297
#	150373
#	170482
#	185053
#	199774
#	214747
#	229929
#	246148
#	263619
#	281070
#
# Disc length: 3923 seconds
#
# Revision: 1
# Processed by: cddbd v1.5.2PL0 Copyright (c) Steve Scherf et al.
# Submitted via: audiograbber 1.83.01
#
DISCID=110f5113
DTITLE=Various Artist - CDX Volume 644 (February 27, 2017)
DYEAR=2016
DGENRE=Country
TTITLE0=Sam Hunt - Body Like A Back Road
TTITLE1=Big and Rich - California
TTITLE2=Blake Shelton - Every Time I Hear That Song
TTITLE3=Aubrie Sellers - Liar Liar [radio edit]
TTITLE4=Zac Brown Band - My Old Man
TTITLE5=Rachel Holder - You Only Call Me When You're Drunk
TTITLE6=Frankie Ballard - You'll Accomp'ny Me
TTITLE7=Jacob Davis - What I Wanna Be
TTITLE8=Amy Jack - Bounce Back 
TTITLE9=Coffey Anderson - Bud Light Blue
TTITLE10=Sarah Dunn Band - Figure It Out
TTITLE11=Kenny Davin Fine and The Tennessee Texans - Gotta Be Good
TTITLE12=Tony Jackson - The Grand Tour
TTITLE13=Smith and Wesley - The Little Things
TTITLE14=Robbie Robinson - This Is the Life
TTITLE15=Rick Monroe - This Side of You
TTITLE16=Simba Jordan - Those Goodbye Eyes
TTITLE17=Dan Washburn - We Were Almost Love
TTITLE18=David McElroy - Without You
EXTD=
EXTT0=
EXTT1=
EXTT2=
EXTT3=
EXTT4=
EXTT5=
EXTT6=
EXTT7=
EXTT8=
EXTT9=
EXTT10=
EXTT11=
EXTT12=
EXTT13=
EXTT14=
EXTT15=
EXTT16=
EXTT17=
EXTT18=
PLAYORDER=
